<svg width="300" height="296" viewBox="0 0 300 296" fill="none" xmlns="http://www.w3.org/2000/svg">
<g clip-path="url(#clip0_1227_13877)">
<path d="M51.58 220.34C8.37997 154.4 38.09 65.2 112.2 38.34C201.2 6.57 290.89 82.83 273.54 175.79C266.88 211.93 242.87 244.25 210.24 261.14C209.83 261.35 209.33 261.2 209.12 260.79C208.91 260.38 209.06 259.88 209.47 259.67C241.61 242.96 265.21 211.08 271.72 175.45C288.63 84.05 200.43 9.12 112.97 40.49C53.98 61.78 21.24 126.1 38.8 186.32C40.47 192.08 42.55 197.72 45.06 203.17C47.58 208.61 50.51 213.87 53.79 218.88C54.76 220.31 52.55 221.81 51.57 220.34H51.58Z" fill="white"/>
<path d="M47.4299 234.16C30.9499 213.09 20.6399 187.16 18.6899 160.45C11.0299 62.65 106.98 -11.48 199.58 21.36C276.39 48.35 312.19 137.51 275.82 210.26C266.94 228.2 253.92 244.01 238.24 256.42C237.89 256.7 237.38 256.64 237.1 256.29C236.82 255.94 236.88 255.43 237.23 255.15C252.7 242.86 265.54 227.23 274.29 209.49C310.04 137.7 274.69 49.8 198.9 23.3C99.4099 -11.54 0.739941 77.11 24.1499 179.71C26.6599 190.84 30.7799 201.83 36.1199 211.92C39.8799 219.22 44.4799 226.05 49.4699 232.56C50.5399 233.86 48.5299 235.55 47.4299 234.16Z" fill="white"/>
<path d="M166.45 0.83C84.62 -7.93 12.7 53.85 1.28997 133.98C-1.32003 153.15 -0.0600324 172.83 5.83997 191.43C6.48997 193.5 7.24997 195.58 7.85997 197.65C17.62 230.25 41.82 256.9 70.04 274.85C72.17 276.27 74.58 277.65 76.77 278.99C88.97 286.65 101.92 283.68 110.49 272.4C117.85 262.66 121.45 252.02 124.94 241.03C129.07 264.9 135.53 299.11 155.57 295.67C168.89 292.56 171.87 269.49 173.98 258.28C176.94 240.73 177.71 223.11 180.26 205.71C180.44 206.75 180.61 207.79 180.8 208.83C184.09 228.28 186.46 251.82 198.22 268.3C202.06 273.7 208.62 278.93 215.8 278.04C219.37 277.67 222.49 276.2 225.08 274.55C244.89 261.92 261.89 245.37 274.89 226.02C275.32 225.39 275.13 224.52 274.48 224.12C273.85 223.72 273.01 223.92 272.62 224.55C260.45 243.88 242.52 259.4 222.46 270.06C211 276.75 205.8 265.64 202.71 256.3C197.66 240.98 194.4 222.8 190.93 206.89C189.94 202.5 189.02 198.08 187.54 193.7C186.75 191.62 186.1 189.69 184.32 187.94C181.12 184.79 176.26 186.09 174.3 189.82C171.76 194.71 171.23 199.99 170.29 205.12C169.37 210.95 168.65 216.7 167.92 222.43C166.46 233.88 165.05 245.27 163 256.38C161.43 264.4 159.82 272.53 156.36 279.71C155.55 281.22 154.36 283.42 153.08 283.88C147.86 282.79 144.29 269.44 142.85 263.94C140.13 252.99 138.61 241.73 136.83 230.43C135.93 225.54 135.53 220.64 133.34 215.79C131.2 211.16 125.33 209.32 121.18 212.73C118.04 215.53 117.46 218.46 116.16 221.7C115.11 224.68 113.09 231.1 112.08 234.19C108.74 244.1 105.03 255.07 98.75 262.96C94.61 268.05 90.61 269.45 85 265.68C57.95 248.28 36.14 222.26 26.23 191.53C25.77 190.04 24.99 187.83 24.43 186.39C16.97 165.11 16.49 141.96 21.14 119.92C41.94 23.71 144.73 -21.97 229.29 29.64C268.04 53.45 293.37 97.35 295.08 142.8C296.06 165.55 291.44 188.57 281.61 209.18C281.22 209.99 281.57 210.96 282.38 211.35C283.19 211.74 284.16 211.39 284.54 210.58C328.51 118.97 267.43 11.12 166.45 0.83Z" fill="white"/>
<path d="M70.8001 254.58C28.1401 223.05 11.0601 168.08 25.2901 117.4C38.8201 67.3 83.0901 28.28 134.47 21.2C198.99 11.12 264.11 53.23 281 116.28C291.22 152.66 284.86 193.32 263.4 224.45C261.59 226.91 257.99 224.47 259.52 221.9C279.38 190.78 284.32 151.25 272.93 116.3C254.62 58.74 195.7 22.3 136.1 32.01C88.5701 39.1 47.9801 76.13 36.5201 122.75C29.9901 148.95 32.2401 177.25 42.7101 202.14L44.4201 206.18C45.0501 207.42 46.7001 210.89 47.3201 212.1C48.0401 213.4 49.8001 216.56 50.5101 217.88C51.2601 219.03 53.2601 222.37 53.9901 223.51C54.8401 224.76 56.9101 227.7 57.7701 228.96C58.6301 230.01 60.9701 233.19 61.8001 234.24C62.7901 235.42 65.1201 238.13 66.1001 239.33L69.1401 242.58C70.8301 244.5 73.6301 247.1 75.4401 248.92C78.8601 252.07 74.5801 257.34 70.8001 254.55V254.58Z" fill="white"/>
<path d="M215.6 264.43C215.24 264.43 214.9 264.24 214.72 263.91C214.46 263.42 214.64 262.82 215.12 262.55C230.09 254.46 243.18 243.66 254.04 230.45C254.39 230.02 255.02 229.96 255.45 230.31C255.88 230.66 255.94 231.29 255.59 231.72C244.57 245.13 231.28 256.1 216.08 264.31C215.93 264.39 215.77 264.43 215.61 264.43H215.6Z" fill="white"/>
<path d="M63.1399 233.16C-0.190052 169.35 34.6899 61.37 119.45 38.24C204.35 14.82 285.67 87.84 269.68 174.75C265.63 197.1 254.95 218.18 239.22 234.51C238.9 234.84 238.38 234.85 238.04 234.54C237.72 234.23 237.7 233.72 237.99 233.39C284.22 181.77 273.38 98.36 215.07 60.98C187.88 43.16 153.08 37.98 121.95 47.08C58.7999 65.42 25.9899 133 47.1099 194.57C51.41 207.51 57.89 219.5 66.05 230.63C67.45 232.49 64.86 234.84 63.13 233.18L63.1399 233.16Z" fill="white"/>
</g>
<defs>
<clipPath id="clip0_1227_13877">
<rect width="299.01" height="295.91" fill="white"/>
</clipPath>
</defs>
</svg>
